<svg id="Ebene_1" data-name="Ebene 1" xmlns="http://www.w3.org/2000/svg" viewBox="0 0 294.8 412.1"><defs><style>.cls-1{fill:#fff;}</style></defs><g id="Surface"><rect class="cls-1" width="294.8" height="412.1"/></g><g id="ePlan"><path d="M289.1,5.7H5.7V223.8H289.2V5.7ZM181.2,44.5h0L125.9,196.2h0A16.45,16.45,0,0,1,95,184.9h0L150.3,33.2a16.45,16.45,0,0,1,30.9,11.3m-50.9,0h0L98.1,132.9h0a16.45,16.45,0,0,1-30.9-11.3h0L99.4,33.2a16.45,16.45,0,0,1,30.9,11.3m101.9,0h0L176.9,196.2h0A16.45,16.45,0,0,1,146,184.9h0L201.3,33.2a16.45,16.45,0,1,1,30.9,11.3" transform="translate(0 0)"/><path d="M98.6,291.3c0,1.4-.2,4.5-.2,4.5H31.3c.7,16.1,8.1,23.8,22.7,23.8,9.7,0,18.3-5.6,20.3-12.1H96.8c-6.8,21.1-21.2,31.4-43.5,31.4-29.5,0-47.5-20.4-47.5-49.1,0-28.1,19.4-49.2,47.5-49.2,29.3,0,45.3,23.1,45.3,50.7M72.9,279.8C70.4,265.7,64.3,260,52.4,260c-12.4,0-20,7.6-21,19.8Z" transform="translate(0 0)"/><path d="M116,315.5H104.6V261h24.9c10.6,0,16.9,6.8,16.9,17.5,0,4.9-2.7,17.4-17.4,17.4H115.9l.1,19.6Zm10.6-29c8.5,0,8.5-6.1,8.5-8.5,0-5.3-3-7.5-10-7.5h-9v16Z" transform="translate(0 0)"/><polygon points="161 305.7 188.1 305.7 188.1 315.5 149.6 315.5 149.6 261 161 261 161 305.7"/><path d="M202.4,315.5h-12L209.8,261h13.1l19.2,54.5H229.7l-3.5-11.2H206.1Zm6.8-20.6h13.9l-6.8-21.6h-.1Z" transform="translate(0 0)"/><polygon points="278.4 261 289 261 289 315.5 277.6 315.5 255.3 276.7 255.2 276.7 255.2 315.5 244.6 315.5 244.6 261 256.6 261 278.2 299 278.4 299 278.4 261"/><path d="M91.8,327.6a42.18,42.18,0,0,1-14.3,11.3H289.1V327.6Z" transform="translate(0 0)"/><rect x="5.7" y="355.5" width="124.8" height="51"/><rect x="134.5" y="355.5" width="35.7" height="51"/><rect x="174.2" y="355.5" width="35.7" height="51"/><rect x="213.8" y="355.5" width="35.7" height="51"/><rect x="253.5" y="355.5" width="35.7" height="51"/></g></svg>
