<?xml version="1.0" encoding="utf-8"?>
<!-- Generator: Adobe Illustrator 24.3.0, SVG Export Plug-In . SVG Version: 6.00 Build 0)  -->
<svg version="1.1" id="Calque_1" xmlns="http://www.w3.org/2000/svg" xmlns:xlink="http://www.w3.org/1999/xlink" x="0px" y="0px"
	 viewBox="0 0 214.5 77.6" style="enable-background:new 0 0 214.5 77.6;" xml:space="preserve">
<style type="text/css">
	.st0{fill:#D41317;}
	.st1{fill:#1D1D1B;}
</style>
<g>
	<g>
		<path class="st0" d="M164.6,52.6c-6.1,0.7-11.4,0.4-17.9,0.6c-1.5,0-2.9,0.8-3.5,0.6c-0.3-0.2,0.3,0.7,0.9-0.1
			c-0.1,0-0.2-0.5-3-0.6l0.8-0.2c-1.9,0-3-1.4-5.3-0.6c0.7-0.2,0.6-0.5,2.4-0.4c-4.1-0.4-2.9,0.4-4.5,0.3l1.2,0.3
			c-1.2-0.3-1-1.2-3.3-1.5c-0.1,0.3,1.2,0.3-1,0.1c-0.9-0.2-0.7-0.2-0.9-0.3c-0.1,0.3-0.7,0.5-2.1,0.5c0.5-0.2,1.3,0.1,1.4-0.3
			c-1.1,0-2.3-0.4-3.1-0.8c-1.2,0.2-2.2-0.4-3.4,0c-0.2-0.7,5.1,0.3,0.8-1.1c0.4,0-0.4,0,1,0l-1.5-0.5c-0.9,0-1.6,0,0.2-0.3
			c-5.2-1.3-9.7-1.9-13.9-1.2c0.6,0.2,0.9,0,1.3,0.3c-2.1,0.2-1.4-0.2-1.8-0.6c-2.5,0.5-1.9,0.3-2.9,0.8c-3.8-0.7-4.4,0.9-7.1-0.2
			l0.8,0.5c-1.9-0.7-2.2,0.3-4.3-0.3c-0.1-0.2,0.9-0.1,1.5-0.3c-1.9,0.2-1.8-1-3.6-0.8l1.6-0.3c-1.2-0.4-3.2-0.3-2.9-0.9
			c-2.5,0.8-7.8,0.1-10.8,0.7l1.2-0.4c-2.1,0.3-5.6-0.2-7.6,0.3l-1.5,0.6l-2-0.1c-0.9-0.2-1-0.5-1.2-0.6c-3.2,0.1-2.9-0.7-7.7-0.3
			c-1,0.6-3.9,1.2-6.6,1.3c-12.9-0.7-26.9,0.3-38.9,1.9c-1.8,0.1-4.2,1.2-6.5,1.8c2.4,0.5,3.2,0.4,5.7-0.1c1.9,0.2,2.3,0.9,4.6,0.8
			l-0.9-0.2c1.3,0.1,1.9,0.3,4-0.5l-0.6,0.4c0.9-0.2,1.7,0.3,3.6,0.1l1.2,0.3c0.1,0.9,2.7,0.6,3.6,0.7l-0.6-0.4
			c1.3,0.3,5.3-0.1,4.4,0.6c0.5-0.2,1.1,0,2.2,0.1l-0.4,0.1c1.5,0,1.3-0.7,1.8-0.2c-0.8-0.1,2.4,0.2,1.1-0.3
			c3.7-2.3,1.6-0.5,7.5-0.6l-0.6,0.2l2.7-0.1l1.8,0.3c2.3-1.4,7.5,0.5,11.1-0.4c1.4-0.1,3.7,0.7,6.4,0.6l-0.6-0.5
			c2,1.3,9.1,1.7,11.7,3c0.7-0.2,0.8,0.2,0.2-0.3c4-0.7,3.9,0.4,5.9,1c-0.2-0.8-1.5-0.3-0.2-0.8c3.7,0.7,1.5-0.9,6.1-0.2
			c-1.9,0.4,1.5,0.1,1,0.4c-3.3,0.4,8.2,0.1,13,0.2c5.5,0.8,14,1.2,20.4,2.2l-0.2-0.2c2.7,0.9,6.4,0.5,9.5,0.1l-1.7,0
			c2.1-0.4,3.1,0.3,4.5-0.1l1.3,0.1c2.6-0.3,1.8,0,2.2-0.2c2,0.3,6,0,6.9,0.1c-0.4,0.2-0.9,0-1.2,0.2c3.5,0.1,2.4-0.5,5.5-0.4
			L154,56c7.4-1,17.2-0.4,25.3-1.4c-0.6-0.1-0.8,0-1-0.2c8.6-0.2,18.6-0.4,25.3-2.5c-4.6,0.3-12.9,1-17.3,0.6
			c-2.3-0.2-3.5,0.2-4.8-0.4c-6.7,0.9-9.7,0.7-16.2,0.6"/>
		<g>
			<path class="st1" d="M125.7,72.5c-0.1-0.1-0.2-0.1-0.3-0.2c0.2-0.2,0.4-0.3,0.5-0.5c0-1.8,0-3.7,0-5.5c-0.2-0.2-0.4-0.3-0.5-0.6
				c0.1-0.1,0.3-0.1,0.4-0.1c0.3,0,0.7,0,1,0c0.2,0,0.3,0,0.4,0.1c0.2,0.2,0.5,0.4,0.7,0.7c0.2,0.3,0.5,0.5,0.7,0.8
				c0.3,0.4,0.7,0.7,1,1c0.2,0.2,0.4,0.4,0.6,0.7c0.3,0.3,0.6,0.6,0.9,0.9c0,0,0.1,0.1,0.2,0.2c0-0.2,0-0.2,0-0.3c0-1,0-2,0-3
				c0-0.3-0.1-0.5-0.3-0.7c-0.1,0-0.1-0.1-0.2-0.1c0,0,0-0.1,0-0.1c0,0,0.1-0.1,0.1-0.1c0.5,0,1,0,1.4,0c0.2,0.1,0.1,0.2,0.1,0.3
				c-0.2,0.1-0.3,0.2-0.4,0.4c0,1.9,0,3.8,0,5.8c0,0.1,0,0.3-0.2,0.4c-0.2,0-0.3,0-0.5-0.2c-0.2-0.3-0.4-0.5-0.7-0.7
				c-0.4-0.4-0.8-0.8-1.1-1.2c-0.2-0.3-0.5-0.5-0.8-0.8c-0.2-0.3-0.4-0.5-0.7-0.8c-0.3-0.3-0.5-0.5-0.7-0.8
				c-0.1-0.1-0.3-0.3-0.4-0.4c-0.1-0.1-0.2-0.2-0.3-0.3c0,1.5,0,3,0,4.5c0.2,0.2,0.3,0.3,0.5,0.5c-0.1,0.1-0.2,0.1-0.2,0.2
				C126.5,72.5,126,72.5,125.7,72.5z"/>
			<path class="st1" d="M97.1,66.3c-0.2-0.2-0.4-0.3-0.5-0.5c0.1-0.1,0.2-0.1,0.4-0.1c1,0,2,0,2.9,0c0.4,0,0.8,0.1,1.2,0.2
				c0.3,0.1,0.6,0.2,0.8,0.4c0.2,0.2,0.5,0.4,0.6,0.8c0.2,0.4,0.2,1.2-0.1,1.6c-0.3,0.4-0.7,0.8-1.3,0.9c-0.2,0-0.3,0.1-0.5,0.1
				c-0.2,0-0.3,0-0.5,0.1c-0.4,0.1-0.9,0-1.3,0.1c0,0.3,0,0.7,0,1c0,0.3,0,0.6,0.2,1c0.1,0.1,0.3,0.2,0.5,0.4c0,0.1-0.1,0.1-0.1,0.2
				c-0.8,0-1.7,0-2.5,0c-0.1-0.1-0.1-0.1-0.2-0.2c0.1-0.1,0.2-0.1,0.3-0.2c0.2-0.1,0.2-0.3,0.2-0.5c0-1.7,0-3.3,0-5
				C97.1,66.5,97.1,66.4,97.1,66.3z M98.9,66.2c-0.2,0.1-0.2,0.3-0.2,0.5c0,0.6,0,1.1,0,1.7c0,0.3,0,0.6,0,0.9c0.3,0,0.6,0,0.9,0
				c0.3,0,0.7-0.2,0.9-0.4c0.3-0.2,0.4-0.6,0.4-0.9c0.1-0.4,0-0.8-0.2-1.2c-0.2-0.5-0.7-0.7-1.1-0.6C99.4,66.2,99.1,66.2,98.9,66.2z
				"/>
			<path class="st1" d="M73.2,65.6c0.2,0.1,0.3,0.3,0.3,0.5c0,0.4,0,0.7,0,1.1c0,0-0.1,0.1-0.1,0.1c-0.2-0.1-0.3-0.2-0.4-0.4
				c-0.1-0.3-0.4-0.6-0.8-0.7c-0.2,0-0.3-0.1-0.5-0.1c-0.5,0-0.9,0-1.4,0c-0.1,0.1-0.1,0.3-0.1,0.4c0,0.7,0,1.4,0,2.1
				c0.5,0,1,0,1.5,0c0.1-0.1,0.3-0.1,0.4-0.2c0.1-0.2,0.3-0.4,0.4-0.6c0.1,0,0.2,0.1,0.3,0.1c0,0.2,0,0.4-0.1,0.6
				c-0.1,0.2-0.1,0.4,0,0.7c0.1,0.2,0,0.4,0,0.6c-0.1,0-0.2,0.1-0.3,0.1c-0.2-0.3-0.3-0.6-0.7-0.7c-0.5,0-1,0-1.6,0
				c0,0.5,0,0.9,0,1.4c0,0.2,0,0.3,0,0.5c0,0.3,0.1,0.5,0.4,0.7c0.2,0,0.5,0.1,0.8,0.1c0.4,0,0.7-0.1,1.1-0.1c0.5-0.1,1-0.3,1.3-0.7
				c0.1-0.1,0.2-0.3,0.4-0.3c0.1,0,0.1,0.1,0.2,0.1c0,0.1-0.1,0.3-0.1,0.4c-0.1,0.2-0.2,0.4-0.3,0.7c-0.1,0.2-0.1,0.3-0.4,0.4
				c-1.8,0-3.6,0-5.4,0c0-0.1-0.1-0.1-0.1-0.2c0,0,0-0.1,0.1-0.1c0.4-0.2,0.5-0.5,0.5-0.9c0-1.6,0-3.3,0-5c-0.2-0.1-0.3-0.3-0.5-0.5
				c0-0.1,0.1-0.1,0.1-0.2C69.8,65.6,71.5,65.6,73.2,65.6z"/>
			<path class="st1" d="M83.2,72.2c-0.1,0.1-0.3,0.2-0.5,0.3c-0.1,0-0.1,0-0.1,0c-0.2-0.2,0-0.5-0.2-0.7c0.1-0.3-0.1-0.5-0.1-0.8
				c0-0.2-0.1-0.5-0.1-0.7c0.1-0.2,0.3-0.1,0.4-0.1c0.2,0.2,0.4,0.5,0.5,0.7c0.2,0.3,0.4,0.6,0.7,0.8c0.2,0.2,0.5,0.3,0.8,0.3
				c0.3,0,0.6,0,0.8-0.1c0.3-0.1,0.5-0.2,0.6-0.5c0,0,0-0.1,0-0.1c0-0.3,0.1-0.5-0.1-0.8c0-0.1,0-0.2-0.1-0.2
				c-0.3-0.2-0.5-0.5-0.9-0.6c-0.5-0.3-1.1-0.5-1.6-0.8c-0.4-0.2-0.7-0.5-0.9-0.9c-0.2-0.4-0.2-0.8,0-1.2c0.1-0.3,0.3-0.6,0.6-0.8
				c0.3-0.2,0.6-0.3,1-0.4c0.5-0.1,0.9-0.2,1.4-0.1c0.4,0.1,0.8,0.1,1.1,0.3c0.2,0.1,0.4,0.2,0.6,0.5c0,0.1-0.1,0.3,0,0.5
				c0.1,0.2,0,0.5,0.1,0.8c-0.1,0-0.2,0.1-0.3,0.1c-0.1-0.1-0.2-0.2-0.3-0.3c-0.2-0.3-0.4-0.5-0.6-0.8c-0.3-0.3-0.6-0.5-1.1-0.5
				c-0.3,0-0.6,0-0.8,0.2c-0.2,0.1-0.4,0.4-0.4,0.6c0,0.1,0,0.3,0,0.3c0.1,0.3,0.3,0.4,0.5,0.6c0.2,0.2,0.5,0.3,0.8,0.5
				c0.5,0.2,0.9,0.4,1.4,0.7c0.5,0.3,0.9,0.7,1,1.2c0,0.2,0,0.3,0,0.5c0,0.5-0.2,0.8-0.5,1.2c-0.3,0.3-0.7,0.5-1.1,0.6
				c-0.1,0-0.2,0.1-0.3,0.1c-0.2,0-0.4,0-0.6,0.1c-0.2,0-0.4,0.1-0.5,0c-0.4,0-0.8-0.2-1.1-0.3C83.4,72.2,83.3,72.2,83.2,72.2z"/>
			<path class="st1" d="M109.8,72.5c0-0.1-0.1-0.1-0.1-0.2c0.1-0.1,0.1-0.2,0.2-0.2c0.4-0.2,0.5-0.5,0.7-0.8
				c0.1-0.3,0.3-0.6,0.4-0.8c0.1-0.3,0.3-0.6,0.4-0.9c0.1-0.3,0.3-0.6,0.4-0.9c0.2-0.4,0.4-0.8,0.6-1.2c0.3-0.5,0.5-1.1,0.8-1.6
				c0,0,0-0.1,0-0.1c0.1-0.1,0.2-0.2,0.3-0.2c0.2,0,0.3,0.1,0.3,0.2c0.2,0.4,0.3,0.7,0.5,1c0.2,0.3,0.3,0.7,0.5,1
				c0.2,0.4,0.3,0.8,0.5,1.2c0.2,0.4,0.4,0.7,0.5,1.1c0.2,0.5,0.5,0.9,0.6,1.4c0.2,0.2,0.3,0.6,0.7,0.7c0.1,0,0.2,0.1,0.2,0.2
				c-0.1,0.1-0.1,0.1-0.2,0.2c-0.9,0-1.7,0-2.6,0c0-0.1-0.1-0.1-0.1-0.2c0.1-0.1,0.2-0.2,0.3-0.2c0,0,0.1,0,0.1,0
				c0.1-0.2,0.1-0.3,0-0.5c-0.2-0.3-0.3-0.6-0.4-0.9c-1,0-1.9,0-2.9,0c-0.2,0.3-0.3,0.7-0.5,1c-0.1,0.1,0,0.2,0,0.4
				c0.2,0.1,0.3,0.2,0.5,0.3c0,0.1,0,0.1-0.1,0.2C111,72.5,110.4,72.5,109.8,72.5z M113.1,67.5c-0.1,0.1-0.1,0.2-0.1,0.3
				c-0.1,0.3-0.3,0.6-0.4,0.9c-0.2,0.4-0.3,0.7-0.5,1.1c-0.1,0.1-0.1,0.2-0.1,0.3c0.7,0,1.5,0,2.2,0c0-0.1,0-0.1,0-0.2
				C113.8,69.1,113.5,68.3,113.1,67.5z"/>
			<path class="st1" d="M143.6,65.5c0.3,0,0.4,0.2,0.5,0.3c0.2,0.5,0.4,0.9,0.6,1.3c0.3,0.6,0.6,1.1,0.8,1.7
				c0.1,0.3,0.3,0.5,0.4,0.8c0.3,0.6,0.6,1.1,0.8,1.7c0.1,0.1,0.1,0.3,0.2,0.4c0.1,0.2,0.3,0.3,0.5,0.4c0.1,0.1,0.2,0.1,0.1,0.3
				c0,0-0.1,0-0.1,0c0,0,0,0-0.1,0c-0.9,0-1.8,0-2.7,0c0-0.1-0.1-0.1-0.1-0.2c0.2-0.1,0.4-0.2,0.5-0.3c0.1-0.5-0.3-0.9-0.5-1.3
				c-1,0-1.9,0-2.9,0c-0.1,0.4-0.5,0.8-0.5,1.3c0.2,0.1,0.3,0.2,0.5,0.4c0,0.1-0.1,0.1-0.1,0.2c-0.6,0-1.2,0-1.7,0
				c0-0.1-0.1-0.1-0.1-0.2c0.1-0.2,0.2-0.2,0.4-0.3c0.4-0.2,0.5-0.5,0.6-0.8c0.1-0.3,0.2-0.5,0.4-0.8c0.2-0.4,0.4-0.8,0.6-1.3
				c0.2-0.3,0.3-0.6,0.4-0.9c0.1-0.3,0.3-0.6,0.4-0.9c0.1-0.2,0.2-0.5,0.3-0.7c0.1-0.2,0.2-0.4,0.3-0.7
				C143.3,65.8,143.5,65.6,143.6,65.5z M144.4,70c-0.4-0.8-0.8-1.7-1.2-2.6c-0.2,0.3-0.3,0.6-0.4,0.9c-0.1,0.3-0.3,0.5-0.4,0.8
				c-0.1,0.3-0.3,0.5-0.3,0.8C142.8,70,143.5,70,144.4,70z"/>
			<path class="st1" d="M129.8,64c0.2,0,0.4,0,0.6,0c0.2-0.1,0.4-0.2,0.6-0.3c0.1,0.1,0.1,0.1,0.2,0.2c0,0,0,0.1-0.1,0.2
				c-0.1,0.4-0.5,0.7-1,0.8c-0.4,0-0.7,0-1-0.2c-0.3-0.1-0.7-0.2-1.1-0.2c-0.2,0.1-0.4,0.2-0.6,0.3c0,0-0.1,0-0.1-0.1
				c0-0.1,0-0.2,0-0.4c0.1-0.2,0.2-0.3,0.4-0.5c0.3-0.2,0.7-0.3,1.1-0.2c0.3,0.1,0.6,0.1,0.9,0.2C129.6,63.9,129.7,63.9,129.8,64z"
				/>
		</g>
		<path class="st1" d="M20.3,19.6l0.3-0.2c0.5,0.2,1.3,0.4,2.5,0.4c3.4,0,6.5-2.2,6.5-7.2c0-4.5-2.4-6.4-7.3-6.4
			c-1.4,0-2.3,0-3.4,0.1c-0.1,0.7-0.3,3.3-0.3,6.3v17.2c0,1.7,0,2.9,0.1,3.4c0.1,0.5,0.8,1,0.9,1c0.6,0.2,2.1,0.2,3.3,0.3l0.2,0.2
			v0.9L23,35.8c-1.9,0-4.3-0.2-6.2-0.2c-1.9,0-3.8,0.1-5.7,0.2L11,35.6v-0.9l0.2-0.2c0.6,0,2.1,0,2.7-0.3c0.1,0,0.8-0.5,0.9-1
			c0.1-0.6,0.1-1.8,0.1-3.4V10.4c0-1.7,0-2.9-0.1-3.4c-0.1-0.5-0.8-1-0.9-1c-0.6-0.2-2.1-0.2-2.7-0.3L11,5.5V4.6l0.2-0.2
			c1.9,0,3.8,0.2,5.7,0.2c2.9,0,5.1-0.2,8.3-0.2c2.8,0,8.6,0.1,8.6,7.5c0,4.4-3.2,9.3-10.2,9.3c-1.6,0-2.5-0.3-2.9-0.6L20.3,19.6z"
			/>
		<path class="st1" d="M39.3,21.2c0-3.2-0.2-4.5-0.4-4.7c-0.2-0.2-0.4-0.4-0.6-0.5c-0.2-0.1-1.7-0.4-2.3-0.4l-0.2-0.2v-0.7l0.2-0.2
			c1.4,0,3.2,0.2,5,0.2c1.8,0,3.6-0.1,4.8-0.2l0.2,0.2v0.7l-0.2,0.2c-0.5,0-2,0.2-2.2,0.4c-0.2,0.1-0.5,0.3-0.6,0.5
			c-0.2,0.2-0.4,1.5-0.4,4.7v7.9c0,3.1,2.1,5.2,5.2,5.2c3.1,0,6-1.2,6-6.4v-6.9c0-4.5-0.5-4.8-3.3-5.3l-0.2-0.2v-0.7l0.2-0.2
			c1.4,0.1,2.7,0.2,4.1,0.2c1.3,0,2.7-0.1,4.1-0.2l0.2,0.2v0.7l-0.2,0.2c-0.8,0-1.9,0.2-2.5,0.6c-0.6,0.6-0.8,1.9-0.8,4.7v7
			c0,5.6-3,8.2-7.8,8.2c-5.8,0-8.4-2.5-8.4-6.5V21.2z"/>
		<path class="st1" d="M69,28c0-2.8-5.1-11.2-7.4-11.2c-0.5,0-0.9,0.1-1.2,0.1L60.2,16l4-1.7c2.4,0,5.6,6.1,6.9,10.3
			c2.8-4.8,4.2-7.2,6.1-10.1h2.7v0.7c-2.7,2.6-5.5,6.5-6.8,9.2c-0.7,1.4-0.8,1.8-0.8,4.7v-0.1c0,3.2,0.2,4.5,0.4,4.7
			c0.2,0.2,0.4,0.4,0.6,0.5c0.2,0.1,1.7,0.4,2.5,0.4l0.2,0.2v0.7l-0.2,0.2c-1.6,0-3.4-0.2-5.2-0.2c-1.8,0-3.6,0.1-5.2,0.2l-0.2-0.2
			v-0.7l0.2-0.2c0.9,0,2.3-0.2,2.5-0.4c0.2-0.1,0.5-0.3,0.6-0.5c0.2-0.2,0.4-1.5,0.4-4.7V28z"/>
		<path class="st1" d="M90.3,29.4c0,1.8,0,3.4,0.2,4.1c0.8,0.3,2.6,0.8,4.3,0.8c5.7,0,9-2.9,9-9.9c0-7.2-4.5-8.7-8.7-8.7
			c-2.3,0-3.1,0.2-4.5,0.4c-0.1,1.1-0.2,2.7-0.2,4.3V29.4z M87,20.8c0-2,0-3.8-0.1-4c-0.1-0.3-0.4-0.7-0.7-0.8
			c-0.2-0.1-1.7-0.4-2.5-0.4l-0.2-0.2v-0.7l0.2-0.2c1.4,0,3.2,0.2,5,0.2c3,0,6.2-0.2,8.5-0.2c6.1,0,10.4,3,10.4,9.5
			c0,5.8-3.6,11.8-12.9,11.8c-1.7,0-3.8-0.2-5.7-0.2c-1.4,0-3.5,0.1-4.1,0.2l-0.2-0.2v-0.7l0.2-0.2c0.6-0.1,1.5-0.4,1.7-0.7
			c0.2-0.2,0.4-2.9,0.4-7.4V20.8z"/>
		<path class="st1" d="M137.6,10.4c0-1.7,0-2.9-0.1-3.4c-0.1-0.5-0.8-1-0.9-1c-0.6-0.2-1.8-0.2-2.4-0.3L134,5.5V4.6l0.2-0.2
			c1.1,0,3.7,0.2,9,0.2c3.6,0,7.2-0.1,9.7-0.2l0.8,0.6l-0.4,5.7h-0.7l-0.2-0.2c0-0.9-0.5-2.9-1.1-3.6c-1.4-0.5-3.7-0.6-5.2-0.6
			c-0.9,0-3,0-4.4,0.4c-0.1,1.8-0.3,5.5-0.3,7.7c0,2,0,5,0.1,5.8c1.1,0.4,2.2,0.4,4,0.4c1.8,0,5.1-0.2,6.5-0.6l0.2,0.2v2.5l-0.2,0.2
			c-0.6-0.3-1.9-0.4-5.5-0.4c-2.7,0-4.1,0-5.1,0.1c-0.1,2.4-0.1,4.9-0.1,7.2c0,1.7,0,2.9,0.1,3.4c0.1,0.5,0.8,1,0.9,1
			c0.6,0.2,2.9,0.2,3.5,0.3l0.2,0.2v0.9l-0.2,0.2c-0.6,0-3.7-0.2-6.4-0.2c-2.8,0-4.8,0.2-5.4,0.2l-0.2-0.2v-0.9l0.2-0.2
			c0.6,0,1.8,0,2.4-0.3c0.1,0,0.8-0.5,0.9-1c0.1-0.6,0.1-1.8,0.1-3.4V10.4z"/>
		<path class="st1" d="M166.6,15.4c-5.6,0-7.9,3.4-7.9,9.1c0,6.8,3.1,10.4,7.9,10.4c5.7,0,8-4.5,8-9.4
			C174.5,20,172.3,15.4,166.6,15.4 M166.6,14.2c7.7,0,11.7,4,11.7,10.5c0,6.8-5,11.5-11.7,11.5c-7.1,0-11.6-4.1-11.6-11
			C154.9,18,159.6,14.2,166.6,14.2"/>
		<path class="st1" d="M184.2,21.2c0-3.2-0.2-4.5-0.4-4.7c-0.2-0.2-0.4-0.4-0.6-0.5c-0.2-0.1-1.7-0.4-2.3-0.4l-0.2-0.2v-0.7l0.2-0.2
			c1.4,0,3.2,0.2,5,0.2c1.8,0,3.6-0.1,4.8-0.2l0.2,0.2v0.7l-0.2,0.2c-0.5,0-2,0.2-2.2,0.4c-0.2,0.1-0.5,0.3-0.6,0.5
			c-0.2,0.2-0.4,1.5-0.4,4.7v7.9c0,3.1,2.1,5.2,5.2,5.2c3.1,0,6-1.2,6-6.4v-6.9c0-4.5-0.5-4.8-3.3-5.3l-0.2-0.2v-0.7l0.2-0.2
			c1.4,0.1,2.7,0.2,4.1,0.2c1.3,0,2.7-0.1,4.1-0.2l0.2,0.2v0.7l-0.2,0.2c-0.8,0-1.9,0.2-2.5,0.6c-0.5,0.6-0.8,1.9-0.8,4.7v7
			c0,5.6-3,8.2-7.8,8.2c-5.8,0-8.4-2.5-8.4-6.5V21.2z"/>
	</g>
	<path class="st1" d="M110.1,21.2c0-3.2-0.2-4.5-0.4-4.7c-0.2-0.2-0.4-0.4-0.6-0.5c-0.2-0.1-1.7-0.4-2.3-0.4l-0.2-0.2v-0.7l0.2-0.2
		c1.4,0,3.2,0.2,5,0.2c1.8,0,3.6-0.1,4.8-0.2l0.2,0.2v0.7l-0.2,0.2c-0.5,0-2,0.2-2.2,0.4c-0.2,0.1-0.5,0.3-0.6,0.5
		c-0.2,0.2-0.4,1.5-0.4,4.7v7.9c0,3.1,2.1,5.2,5.2,5.2c3.1,0,6-1.2,6-6.4v-6.9c0-4.5-0.5-4.8-3.3-5.3l-0.2-0.2v-0.7l0.2-0.2
		c1.4,0.1,2.7,0.2,4.1,0.2c1.3,0,2.7-0.1,4.1-0.2l0.2,0.2v0.7l-0.2,0.2c-0.8,0-1.9,0.2-2.5,0.6c-0.6,0.6-0.8,1.9-0.8,4.7v7
		c0,5.6-3,8.2-7.8,8.2c-5.8,0-8.4-2.5-8.4-6.5V21.2z"/>
	<path class="st1" d="M202.6,35.1h0.2c0.2,0,0.3,0,0.3-0.2c0-0.2-0.1-0.2-0.3-0.2h-0.2V35.1z M202.5,34.5h0.5c0.3,0,0.4,0.1,0.4,0.3
		c0,0.2-0.1,0.3-0.3,0.3l0.3,0.5h-0.2l-0.3-0.5h-0.2v0.5h-0.2V34.5z M202.8,36c0.5,0,0.8-0.4,0.8-0.9c0-0.5-0.4-0.9-0.8-0.9
		c-0.5,0-0.8,0.4-0.8,0.9C202,35.6,202.4,36,202.8,36 M202.8,34.1c0.6,0,1,0.4,1,1c0,0.6-0.5,1-1,1c-0.6,0-1-0.4-1-1
		C201.8,34.6,202.3,34.1,202.8,34.1"/>
</g>
</svg>
